<svg width="77" height="77" viewBox="0 0 77 77" fill="none" xmlns="http://www.w3.org/2000/svg">
<path fill-rule="evenodd" clip-rule="evenodd" d="M0 38.5C0 17.237 17.237 0 38.5 0C59.763 0 77 17.237 77 38.5C77 59.763 59.763 77 38.5 77C17.237 77 0 59.763 0 38.5ZM76 38.5C76 17.7893 59.2107 1 38.5 1C17.7893 1 1 17.7893 1 38.5C1 59.2107 17.7893 76 38.5 76C59.2107 76 76 59.2107 76 38.5Z" fill="#D1D1D3"/>
<path d="M42.7071 30.2072L41.2929 28.793L31.0858 39.0001L41.2929 49.2072L42.7071 47.793L33.915 39.0001L42.7071 30.2072Z" fill="#D1D1D3"/>
</svg>
