<svg width="13" height="8" viewBox="0 0 13 8" fill="none" xmlns="http://www.w3.org/2000/svg">
<path d="M6.3033 7.01041L5.94975 7.36396L6.3033 7.71751L6.65685 7.36396L6.3033 7.01041ZM1 1.70711L0.646447 1.35355L0.292893 1.70711L0.646447 2.06066L1 1.70711ZM7.01041 6.3033L7.36396 6.65685L7.71751 6.3033L7.36396 5.94975L7.01041 6.3033ZM1.70711 1L2.06066 0.646447L1.70711 0.292893L1.35355 0.646447L1.70711 1ZM8.05586 5.83025L7.70231 6.1838L8.05586 6.53735L8.40942 6.1838L8.05586 5.83025ZM12.0947 1.7914L12.4483 2.14496L12.8018 1.7914L12.4483 1.43785L12.0947 1.7914ZM7.34876 5.12314L6.9952 4.76959L6.64165 5.12314L6.9952 5.47669L7.34876 5.12314ZM11.3876 1.0843L11.7412 0.730744L11.3876 0.37719L11.034 0.730744L11.3876 1.0843ZM6.65685 6.65685L1.35355 1.35355L0.646447 2.06066L5.94975 7.36396L6.65685 6.65685ZM6.65685 5.94975L5.94975 6.65685L6.65685 7.36396L7.36396 6.65685L6.65685 5.94975ZM1.35355 1.35355L6.65685 6.65685L7.36396 5.94975L2.06066 0.646447L1.35355 1.35355ZM1.35355 2.06066L2.06066 1.35355L1.35355 0.646447L0.646447 1.35355L1.35355 2.06066ZM8.40942 6.1838L12.4483 2.14496L11.7412 1.43785L7.70231 5.47669L8.40942 6.1838ZM6.9952 5.47669L7.70231 6.1838L8.40942 5.47669L7.70231 4.76959L6.9952 5.47669ZM11.034 0.730744L6.9952 4.76959L7.70231 5.47669L11.7412 1.43785L11.034 0.730744ZM12.4483 1.43785L11.7412 0.730744L11.034 1.43785L11.7412 2.14496L12.4483 1.43785Z" fill="white"/>
</svg>
