<svg width="774" height="774" viewBox="0 0 774 774" fill="none" xmlns="http://www.w3.org/2000/svg">
<path d="M498.231 270.912C562.264 332.749 564.394 434.415 502.999 497.991C441.605 561.567 339.926 562.986 275.893 501.15C211.86 439.314 209.729 337.647 271.124 274.071C332.518 210.495 434.198 209.076 498.231 270.912Z" stroke="url(#paint0_linear_3079_2)"/>
<path opacity="0.16998" d="M268.182 196.567C373.8 130.57 512.649 162.259 578.311 267.34C643.972 372.42 611.587 511.108 505.969 577.106C400.351 643.103 261.503 611.414 195.841 506.333C130.179 401.252 162.564 262.565 268.182 196.567Z" stroke="url(#paint1_linear_3079_2)"/>
<defs>
<linearGradient id="paint0_linear_3079_2" x1="326.167" y1="192.11" x2="177.7" y2="465.63" gradientUnits="userSpaceOnUse">
<stop stop-color="#B27B6F"/>
<stop offset="0.242279" stop-color="#BE8D83" stop-opacity="0.238316"/>
<stop offset="0.713472" stop-color="#D5B1A9" stop-opacity="0.01"/>
<stop offset="1" stop-color="#E3C6C0"/>
</linearGradient>
<linearGradient id="paint1_linear_3079_2" x1="103.309" y1="403.619" x2="424.848" y2="697.877" gradientUnits="userSpaceOnUse">
<stop stop-color="#B27B6F"/>
<stop offset="0.242279" stop-color="#BE8D83" stop-opacity="0.238316"/>
<stop offset="0.713472" stop-color="#D5B1A9" stop-opacity="0.01"/>
<stop offset="1" stop-color="#E3C6C0"/>
</linearGradient>
</defs>
</svg>
