<svg width="127" height="139" viewBox="0 0 127 139" fill="none" xmlns="http://www.w3.org/2000/svg">
<g filter="url(#filter0_d_0_1109)">
<path fill-rule="evenodd" clip-rule="evenodd" d="M85.4724 86.2151C91.9436 80.2989 96 71.8043 96 62.3663C96 44.4909 81.4493 30 63.5 30C45.5507 30 31 44.4909 31 62.3663C31 71.8043 35.0564 80.2989 41.5276 86.2151H41.2632C41.2632 86.2151 51.7553 94.9993 57.5132 102.398C58.2536 103.35 58.9025 104.268 59.4714 105.145C60.5354 106.787 66.8658 106.894 67.8621 105.21C68.59 103.981 69.4151 102.738 70.3421 101.547C75.1117 95.4176 85.7368 86.2151 85.7368 86.2151H85.4724Z" fill="url(#paint0_linear_0_1109)"/>
</g>
<ellipse cx="63.5" cy="63.3521" rx="27.3" ry="27.4429" fill="white"/>
<path fill-rule="evenodd" clip-rule="evenodd" d="M47.7106 70.8957L61.2348 63.0468C61.2304 62.9854 61.2282 62.9234 61.2282 62.8611L61.2316 62.7338L47.7108 54.8866V70.8957H47.7106ZM64.2741 60.4307C64.7319 60.5383 65.1415 60.7733 65.464 61.0963C65.6245 61.2581 65.7625 61.4416 65.8748 61.6414L79.1752 53.922L64.2741 45.2737V60.4307ZM66.1905 62.7428L66.1934 62.8611C66.1934 62.9202 66.1912 62.9793 66.1873 63.0375L79.7276 70.8958V54.8868L66.1907 62.743L66.1905 62.7428ZM65.8497 64.1265C65.7431 64.3085 65.6132 64.4752 65.4662 64.6236C65.1426 64.9483 64.7319 65.1843 64.2741 65.2914V80.5088L79.1752 71.8605L65.8497 64.1265ZM63.164 65.2953C62.6994 65.1899 62.2831 64.9527 61.9574 64.6258C61.8114 64.4786 61.6833 64.3134 61.5766 64.1338L48.2628 71.8605L63.164 80.5088V65.2953ZM61.5505 61.6338C61.6609 61.4374 61.7974 61.2578 61.955 61.0987C62.2826 60.7701 62.6992 60.5324 63.1638 60.427V45.2738L48.2627 53.9221L61.5505 61.6338ZM64.6824 61.8842C64.4343 61.6353 64.0902 61.4813 63.7106 61.4813C63.331 61.4813 62.9868 61.6358 62.7388 61.8842C62.4912 62.1336 62.338 62.4795 62.338 62.8611C62.338 63.2427 62.4917 63.5887 62.7388 63.8379C62.987 64.0862 63.331 64.2409 63.7106 64.2409C64.0902 64.2409 64.4344 64.0868 64.6824 63.8379C64.9293 63.5885 65.0831 63.2427 65.0831 62.8611C65.0831 62.4795 64.9298 62.1335 64.6824 61.8842ZM64.0302 43.8471L80.5259 53.4211C80.7102 53.5121 80.8373 53.7017 80.8373 53.9221V71.8605V71.8693V71.8749L80.8366 71.8783L80.8356 71.8962V71.9035L80.8349 71.9052L80.8344 71.9142V71.9176L80.8332 71.9232L80.8327 71.9316L80.8322 71.9321L80.8305 71.9455L80.8295 71.9499C80.7995 72.1312 80.6847 72.2831 80.5259 72.3617L64.0302 81.9357L64.0292 81.9362L64.0258 81.9384L64.0219 81.9411L64.0181 81.9433L64.0176 81.9438L64.0137 81.9467L64.0093 81.9489L64.0066 81.9506L64.0049 81.9516L64.0005 81.9545L63.9962 81.9567L63.9955 81.9572L63.9945 81.9577L63.9923 81.9594L63.9879 81.9616L63.984 81.9638L63.9833 81.9645L63.979 81.9667L63.9746 81.9689L63.9717 81.9706L63.9695 81.9711L63.9651 81.9733L63.9608 81.9755L63.9598 81.976L63.9564 81.9777L63.952 81.9799L63.9476 81.9821H63.9469L63.9426 81.9843L63.9375 81.986L63.9353 81.9872L63.9331 81.9882L63.9287 81.9899L63.9237 81.9921L63.9232 81.9926L63.9188 81.9938L63.9144 81.9955L63.9105 81.9972L63.9095 81.9977L63.9051 81.9994L63.9001 82.0011L63.8979 82.0016L63.895 82.0028L63.89 82.0045L63.8856 82.0062H63.8844L63.8805 82.0074L63.8755 82.0091L63.8716 82.0101H63.8704L63.8654 82.0118L63.8603 82.0128L63.8581 82.0135L63.8552 82.0145L63.8502 82.0157L63.8451 82.0169H63.8446L63.8402 82.018L63.8347 82.0191L63.8308 82.0202H63.8298L63.8247 82.0214L63.8197 82.0224H63.8175L63.8146 82.0231L63.8091 82.0243L63.804 82.0248H63.8035L63.7991 82.026L63.7935 82.0265L63.7897 82.027H63.7885L63.7829 82.0277L63.7779 82.0282L63.7757 82.0287H63.7723L63.7673 82.0294L63.7617 82.0299L63.7566 82.0306H63.7511L63.7472 82.0311H63.7455H63.7404L63.7349 82.0316H63.7332H63.7293H63.7243H63.7187H63.7131H63.7081H63.7042H63.7025L63.697 82.0311H63.6919H63.6902L63.6863 82.0306H63.6808L63.6757 82.0299L63.6702 82.0294L63.6651 82.0287H63.6617L63.6595 82.0282L63.6545 82.0277L63.6489 82.027H63.6477L63.6439 82.0265L63.6383 82.026L63.6339 82.0248H63.6334L63.6284 82.0243L63.6228 82.0231L63.6199 82.0224H63.6177L63.6127 82.0214L63.6076 82.0202H63.6064L63.6026 82.0191L63.597 82.018L63.5926 82.0169H63.5921L63.5871 82.0157L63.582 82.0145L63.5793 82.0135L63.5771 82.0128L63.5721 82.0118L63.567 82.0101H63.5658L63.5619 82.0091L63.5569 82.0074L63.553 82.0062H63.5525L63.5474 82.0045L63.5424 82.0028L63.5395 82.0016L63.5373 82.0011L63.5323 81.9994L63.5279 81.9977L63.5267 81.9972L63.5228 81.9955L63.5185 81.9938L63.5141 81.9926L63.5136 81.9921L63.5085 81.9899L63.5041 81.9882L63.5019 81.9872L63.4997 81.986L63.4947 81.9843L63.4903 81.9821H63.4898L63.4854 81.9799L63.481 81.9777L63.4777 81.976L63.4765 81.9755L63.4721 81.9733L63.4677 81.9711L63.4655 81.9706L63.4627 81.9689L63.4583 81.9667L63.4539 81.9645L63.4534 81.9638L63.4495 81.9616L63.4451 81.9594L63.4429 81.9577L63.4418 81.9572L63.4413 81.9567L63.4369 81.9545L63.4325 81.9516L63.4308 81.9506L63.4279 81.9489L63.4236 81.9467L63.4197 81.9438L63.4192 81.9433L63.4153 81.9411L63.4114 81.9384L63.408 81.9362L63.407 81.9357L46.9113 72.3617C46.7271 72.2707 46.6 72.0811 46.6 71.8606V53.9223V53.9133V53.9077L46.6005 53.9044L46.6017 53.8864V53.8791L46.6022 53.8774L46.6028 53.8684V53.865L46.604 53.8594L46.6045 53.851L46.605 53.8505L46.6067 53.8371L46.6079 53.8327C46.6379 53.6514 46.7527 53.4997 46.9115 53.4209L63.4072 43.8469L63.4082 43.8464L63.4116 43.8442L63.4155 43.8413L63.4193 43.8391L63.4198 43.8386L63.4237 43.8357L63.4281 43.8329L63.431 43.8318L63.4327 43.8307L63.437 43.8278L63.4414 43.8249H63.4419L63.4453 43.8227L63.4497 43.8198L63.4536 43.8181L63.4541 43.8176L63.4584 43.8154L63.4628 43.8125L63.4657 43.8115L63.4679 43.8103L63.4723 43.8081L63.4767 43.8059H63.4778L63.4812 43.8037L63.4856 43.8015L63.489 43.8003L63.4901 43.7998H63.4906L63.495 43.7976L63.5001 43.7954L63.5023 43.7949L63.5045 43.7937L63.5088 43.7915L63.5117 43.7903L63.5139 43.7897L63.5144 43.7891L63.5188 43.7874L63.5232 43.7858L63.5271 43.7846L63.5282 43.7841L63.5326 43.7824L63.5377 43.7807L63.5399 43.78L63.5427 43.779L63.5478 43.7773L63.5528 43.7756H63.5533L63.5572 43.7739L63.5623 43.7729L63.5662 43.7717L63.5673 43.771L63.5724 43.77L63.5774 43.7683H63.5796L63.5823 43.7671L63.5874 43.7659L63.5925 43.7647H63.593L63.5973 43.7637L63.6029 43.7625L63.6068 43.7614H63.608L63.613 43.7603L63.6181 43.7592H63.6203L63.6231 43.7585L63.6287 43.7575L63.6338 43.7568H63.6343L63.6386 43.7558L63.6442 43.7551L63.6481 43.7546H63.6493L63.6548 43.7541L63.657 43.7534L63.6621 43.7529H63.6654L63.6705 43.7522L63.6761 43.7517L63.6811 43.7512H63.6867L63.6906 43.7505H63.6922H63.6973L63.7029 43.75H63.7045H63.7084H63.7135H63.719H63.7246H63.7297H63.7335H63.7352L63.7408 43.7505H63.7458H63.7475L63.7514 43.7512H63.757L63.762 43.7517L63.7676 43.7522L63.7726 43.7529H63.776L63.7811 43.7534L63.7833 43.7541L63.7888 43.7546H63.79L63.7939 43.7551L63.7994 43.7558L63.8038 43.7568H63.8043L63.8094 43.7575L63.815 43.7585L63.8178 43.7592H63.82L63.8251 43.7603L63.8301 43.7614H63.8311L63.835 43.7625L63.8406 43.7637L63.845 43.7647H63.8455L63.8505 43.7659L63.8556 43.7671L63.8584 43.7683H63.8606L63.8657 43.77L63.8708 43.771L63.8719 43.7717L63.8758 43.7729L63.8809 43.7739L63.8847 43.7756H63.8859L63.8903 43.7773L63.8954 43.779L63.8982 43.78L63.9004 43.7807L63.9055 43.7824L63.9099 43.7841L63.9109 43.7846L63.9147 43.7858L63.9191 43.7874L63.9235 43.7891L63.924 43.7897L63.9269 43.7903L63.9291 43.7915L63.9335 43.7937L63.9356 43.7949L63.9378 43.7954L63.9429 43.7976L63.9473 43.7998H63.948L63.949 43.8003L63.9523 43.8015L63.9567 43.8037L63.9601 43.8059H63.9611L63.9655 43.8081L63.9699 43.8103L63.9721 43.8115L63.9749 43.8125L63.9793 43.8154L63.9837 43.8176L63.9844 43.8181L63.9882 43.8198L63.9926 43.8227L63.996 43.8249H63.9967L64.001 43.8278L64.0054 43.8307L64.0071 43.8318L64.0098 43.8329L64.0142 43.8357L64.0181 43.8386L64.0186 43.8391L64.0225 43.8413L64.0263 43.8442L64.0297 43.8464L64.0307 43.8469L64.0302 43.8471Z" fill="url(#paint1_linear_0_1109)"/>
<defs>
<filter id="filter0_d_0_1109" x="0" y="0" width="127" height="138.425" filterUnits="userSpaceOnUse" color-interpolation-filters="sRGB">
<feFlood flood-opacity="0" result="BackgroundImageFix"/>
<feColorMatrix in="SourceAlpha" type="matrix" values="0 0 0 0 0 0 0 0 0 0 0 0 0 0 0 0 0 0 127 0" result="hardAlpha"/>
<feOffset dy="1"/>
<feGaussianBlur stdDeviation="15.5"/>
<feColorMatrix type="matrix" values="0 0 0 0 0.784314 0 0 0 0 0.54902 0 0 0 0 0.380392 0 0 0 0.464639 0"/>
<feBlend mode="normal" in2="BackgroundImageFix" result="effect1_dropShadow_0_1109"/>
<feBlend mode="normal" in="SourceGraphic" in2="effect1_dropShadow_0_1109" result="shape"/>
</filter>
<linearGradient id="paint0_linear_0_1109" x1="100.797" y1="63.6407" x2="50.1919" y2="24.0943" gradientUnits="userSpaceOnUse">
<stop stop-color="#C88C61"/>
<stop offset="1" stop-color="#EBBE9C"/>
</linearGradient>
<linearGradient id="paint1_linear_0_1109" x1="83.3637" y1="59.649" x2="58.95" y2="38.3857" gradientUnits="userSpaceOnUse">
<stop stop-color="#C88C61"/>
<stop offset="1" stop-color="#EBBE9C"/>
</linearGradient>
</defs>
</svg>
