<svg width="41" height="34" viewBox="0 0 41 34" fill="none" xmlns="http://www.w3.org/2000/svg">
<g filter="url(#filter0_d_2206_2)">
<path d="M30.943 16.6807L30.686 16.9376C29.374 18.2497 26.8816 18.5516 25.2939 17.591L25.1858 17.5256L25.0699 17.4756C24.9276 17.4142 24.5709 17.2208 24.0316 16.8591C23.0737 16.2166 21.9981 15.3333 20.8367 14.1718C19.6752 13.0103 18.7918 11.9347 18.1494 10.9769C17.7876 10.4376 17.5942 10.0809 17.5329 9.93856L17.4773 9.80975L17.4029 9.69086C16.4375 8.14864 16.7488 5.6445 18.0724 4.32084L18.3422 4.05106C18.6414 3.7519 18.999 3.77226 19.2592 4.10112L20.7279 5.95801C21.0901 6.41587 21.0432 7.21298 20.6253 7.63098C19.7361 8.53051 19.7405 9.97962 20.6353 10.8744L24.1342 14.3733C25.0311 15.2702 26.4902 15.2707 27.3888 14.3722L27.4606 14.3003C27.8686 13.8923 28.6333 13.8546 29.081 14.2214L30.8919 15.705C31.23 15.982 31.2498 16.3739 30.943 16.6807Z" fill="url(#paint0_linear_2206_2)"/>
</g>
<circle cx="15.1964" cy="18.8039" r="7.80357" transform="rotate(-180 15.1964 18.8039)" stroke="url(#paint1_radial_2206_2)"/>
<circle cx="11.5" cy="22.5" r="11.5" transform="rotate(-180 11.5 22.5)" stroke="url(#paint2_radial_2206_2)"/>
<defs>
<filter id="filter0_d_2206_2" x="7.84021" y="-3.16016" width="32.3198" height="32.3145" filterUnits="userSpaceOnUse" color-interpolation-filters="sRGB">
<feFlood flood-opacity="0" result="BackgroundImageFix"/>
<feColorMatrix in="SourceAlpha" type="matrix" values="0 0 0 0 0 0 0 0 0 0 0 0 0 0 0 0 0 0 127 0" result="hardAlpha"/>
<feOffset dy="2"/>
<feGaussianBlur stdDeviation="4.5"/>
<feColorMatrix type="matrix" values="0 0 0 0 1 0 0 0 0 0.549398 0 0 0 0 0.230869 0 0 0 1 0"/>
<feBlend mode="normal" in2="BackgroundImageFix" result="effect1_dropShadow_2206_2"/>
<feBlend mode="normal" in="SourceGraphic" in2="effect1_dropShadow_2206_2" result="shape"/>
</filter>
<linearGradient id="paint0_linear_2206_2" x1="9.68031" y1="10.9969" x2="23.9944" y2="25.3167" gradientUnits="userSpaceOnUse">
<stop stop-color="#E9C6A4"/>
<stop offset="1" stop-color="#CE946B"/>
</linearGradient>
<radialGradient id="paint1_radial_2206_2" cx="0" cy="0" r="1" gradientUnits="userSpaceOnUse" gradientTransform="translate(23 11.0003) rotate(57.6502) scale(13.5461)">
<stop stop-color="white"/>
<stop offset="0.621892" stop-color="white"/>
<stop offset="1" stop-color="white" stop-opacity="0.01"/>
</radialGradient>
<radialGradient id="paint2_radial_2206_2" cx="0" cy="0" r="1" gradientUnits="userSpaceOnUse" gradientTransform="translate(23 11) rotate(57.6502) scale(19.9627)">
<stop stop-color="white"/>
<stop offset="0.621892" stop-color="white"/>
<stop offset="1" stop-color="white" stop-opacity="0.01"/>
</radialGradient>
</defs>
</svg>
